<svg width="500" height="500" xmlns="http://www.w3.org/2000/svg" xmlns:xlink="http://www.w3.org/1999/xlink" overflow="hidden"><defs><clipPath id="clip0"><rect x="0" y="0" width="500" height="500"/></clipPath><clipPath id="clip1"><rect x="83" y="50" width="339" height="400"/></clipPath><clipPath id="clip2"><rect x="27" y="-5" width="395" height="455"/></clipPath><clipPath id="clip3"><rect x="27" y="-5" width="395" height="455"/></clipPath></defs><g clip-path="url(#clip0)"><rect x="0" y="0" width="500" height="500" fill="#FFFFFF"/><g clip-path="url(#clip1)"><g clip-path="url(#clip2)"><g clip-path="url(#clip3)"><path d="M437.512 174.653 437.482 174.608C436.861 173.442 436.058 172.336 435.104 171.321L434.846 171.063C434.846 171.063 346.838 83.055 346.838 83.055 346.217 82.025 345.474 81.0707 344.626 80.2073 341.778 77.3443 337.916 75.7387 333.871 75.7387L121.182 75.7387C112.82 75.7387 106.034 82.5248 106.034 90.8864L106.034 454.432C106.034 462.794 112.82 469.58 121.182 469.58L424.137 469.58C432.498 469.58 439.284 462.794 439.284 454.432L439.284 181.773C439.284 179.198 438.648 176.774 437.512 174.653ZM318.102 181.667C318.072 185.711 319.663 189.589 322.495 192.452 325.343 195.315 329.221 196.921 333.25 196.921L408.989 196.921C408.989 196.921 408.989 439.284 408.989 439.284 408.989 439.284 136.33 439.284 136.33 439.284 136.33 439.284 136.33 106.034 136.33 106.034 136.33 106.034 318.617 106.034 318.617 106.034 318.617 106.034 318.102 181.667 318.102 181.667ZM302.955 15.1477 60.5909 15.1477C52.2294 15.1477 45.4432 21.9339 45.4432 30.2955L45.4432 393.841C45.4432 402.203 52.2294 408.989 60.5909 408.989 68.9525 408.989 75.7387 402.203 75.7387 393.841L75.7387 45.4432C75.7387 45.4432 302.955 45.4432 302.955 45.4432 311.316 45.4432 318.102 38.657 318.102 30.2955 318.102 21.9339 311.316 15.1477 302.955 15.1477ZM181.773 339.749 348.398 339.749C356.759 339.749 363.546 332.947 363.546 324.601 363.546 316.239 356.759 309.453 348.398 309.453L181.773 309.453C173.411 309.453 166.625 316.239 166.625 324.601 166.625 332.947 173.411 339.749 181.773 339.749ZM181.773 287.807 302.955 287.807C311.316 287.807 318.102 281.021 318.102 272.659 318.102 264.298 311.316 257.511 302.955 257.511L181.773 257.511C173.411 257.511 166.625 264.298 166.625 272.659 166.625 281.021 173.411 287.807 181.773 287.807ZM181.773 235.865 272.659 235.865C281.021 235.865 287.807 229.079 287.807 220.718 287.807 212.371 281.021 205.57 272.659 205.57L181.773 205.57C173.411 205.57 166.625 212.371 166.625 220.718 166.625 229.079 173.411 235.865 181.773 235.865ZM348.504 166.625 387.57 166.625 348.761 127.832 348.504 166.625Z" fill-rule="evenodd" transform="matrix(1.00128 0 0 1 -17.8465 -19.5797)"/></g></g></g><g><g><g><path d="M500 400C500 455.228 455.228 500 400 500 344.772 500 300 455.228 300 400 300 344.772 344.772 300 400 300 455.228 300 500 344.772 500 400Z" fill="#FFFFFF"/></g></g></g><g><g><g><path d="M400 311C350.828 311 311 350.828 311 400 311 449.172 350.828 489 400 489 449.172 489 489 449.172 489 400 489 350.828 449.172 311 400 311ZM400 471.2C360.662 471.2 328.8 439.338 328.8 400 328.8 360.662 360.662 328.8 400 328.8 439.338 328.8 471.2 360.662 471.2 400 471.2 439.338 439.338 471.2 400 471.2Z"/></g></g></g><path d="M363.961 433 436.039 433C437.62 433 439.136 433.632 440.254 434.757 441.372 435.883 442 437.409 442 439L442 439C442 440.591 441.372 442.118 440.254 443.243 439.136 444.368 437.62 445 436.039 445L363.961 445C362.38 445 360.864 444.368 359.746 443.243 358.628 442.118 358 440.591 358 439L358 439C358 437.409 358.628 435.883 359.746 434.757 360.864 433.632 362.38 433 363.961 433Z" fill="#1E1E1E" fill-rule="evenodd"/><g><g><g><path d="M183.914 151.071 130.601 151.071C130.601 151.071 141.832 139.921 142.129 139.54 142.899 138.552 143.362 137.313 143.362 135.964 143.362 134.474 142.799 133.12 141.879 132.087L141.407 131.615C140.376 130.695 139.02 130.131 137.53 130.131 135.998 130.131 134.607 130.729 133.566 131.696 133.566 131.696 112.055 153.173 111.945 153.315 111.184 154.301 110.727 155.53 110.727 156.873 110.727 158.212 111.184 159.443 111.944 160.427 112.251 160.826 133.834 182.316 133.834 182.316 134.835 183.128 136.11 183.615 137.5 183.615 140.72 183.615 143.332 181.005 143.332 177.785 143.332 176.372 142.829 175.077 141.995 174.068L130.601 162.675 183.914 162.675C187.118 162.675 189.715 160.076 189.715 156.873 189.715 153.668 187.118 151.071 183.914 151.071" transform="matrix(6.12323e-17 -1 1.00376 6.14628e-17 242.522 536.716)"/></g></g></g></g></svg>