<svg width="500" height="500" xmlns="http://www.w3.org/2000/svg" xmlns:xlink="http://www.w3.org/1999/xlink" overflow="hidden"><defs><clipPath id="clip0"><rect x="75" y="50" width="347" height="400"/></clipPath><clipPath id="clip1"><rect x="75" y="50" width="347" height="400"/></clipPath><clipPath id="clip2"><rect x="75" y="50" width="347" height="400"/></clipPath></defs><g><rect x="0" y="0" width="500" height="500" fill="#FFFFFF"/><g clip-path="url(#clip0)"><g clip-path="url(#clip1)"><g clip-path="url(#clip2)"><path d="M385.107 153.733 385.08 153.693C384.533 152.667 383.827 151.693 382.987 150.8L382.76 150.573C382.76 150.573 305.293 73.1067 305.293 73.1067 304.747 72.2 304.093 71.36 303.347 70.6 300.84 68.08 297.44 66.6667 293.88 66.6667L106.667 66.6667C99.3067 66.6667 93.3333 72.64 93.3333 80L93.3333 400C93.3333 407.36 99.3067 413.333 106.667 413.333L373.333 413.333C380.693 413.333 386.667 407.36 386.667 400L386.667 160C386.667 157.733 386.107 155.6 385.107 153.733ZM280 159.907C279.973 163.467 281.373 166.88 283.867 169.4 286.373 171.92 289.787 173.333 293.333 173.333L360 173.333C360 173.333 360 386.667 360 386.667 360 386.667 120 386.667 120 386.667 120 386.667 120 93.3333 120 93.3333 120 93.3333 280.453 93.3333 280.453 93.3333 280.453 93.3333 280 159.907 280 159.907ZM266.667 13.3333 53.3333 13.3333C45.9733 13.3333 40 19.3067 40 26.6667L40 346.667C40 354.027 45.9733 360 53.3333 360 60.6933 360 66.6667 354.027 66.6667 346.667L66.6667 40C66.6667 40 266.667 40 266.667 40 274.027 40 280 34.0267 280 26.6667 280 19.3067 274.027 13.3333 266.667 13.3333ZM160 299.053 306.667 299.053C314.027 299.053 320 293.067 320 285.72 320 278.36 314.027 272.387 306.667 272.387L160 272.387C152.64 272.387 146.667 278.36 146.667 285.72 146.667 293.067 152.64 299.053 160 299.053ZM160 253.333 266.667 253.333C274.027 253.333 280 247.36 280 240 280 232.64 274.027 226.667 266.667 226.667L160 226.667C152.64 226.667 146.667 232.64 146.667 240 146.667 247.36 152.64 253.333 160 253.333ZM160 207.613 240 207.613C247.36 207.613 253.333 201.64 253.333 194.28 253.333 186.933 247.36 180.947 240 180.947L160 180.947C152.64 180.947 146.667 186.933 146.667 194.28 146.667 201.64 152.64 207.613 160 207.613ZM306.76 146.667 341.147 146.667 306.987 112.52 306.76 146.667Z" fill-rule="evenodd" transform="matrix(1.00096 0 0 1 34.9615 36.6667)"/></g></g></g><g><g><g><path d="M500 400C500 455.228 455.228 500 400 500 344.772 500 300 455.228 300 400 300 344.772 344.772 300 400 300 455.228 300 500 344.772 500 400Z" fill="#FFFFFF"/></g></g></g><g><g><g><path d="M400 311C350.828 311 311 350.828 311 400 311 449.172 350.828 489 400 489 449.172 489 489 449.172 489 400 489 350.828 449.172 311 400 311ZM400 471.2C360.662 471.2 328.8 439.338 328.8 400 328.8 360.662 360.662 328.8 400 328.8 439.338 328.8 471.2 360.662 471.2 400 471.2 439.338 439.338 471.2 400 471.2Z"/></g></g></g><path d="M363.961 433 436.039 433C437.62 433 439.136 433.632 440.254 434.757 441.372 435.883 442 437.409 442 439L442 439C442 440.591 441.372 442.118 440.254 443.243 439.136 444.368 437.62 445 436.039 445L363.961 445C362.38 445 360.864 444.368 359.746 443.243 358.628 442.118 358 440.591 358 439L358 439C358 437.409 358.628 435.883 359.746 434.757 360.864 433.632 362.38 433 363.961 433Z" fill="#1E1E1E" fill-rule="evenodd"/><g><g><g><path d="M183.914 151.071 130.601 151.071C130.601 151.071 141.832 139.921 142.129 139.54 142.899 138.552 143.362 137.313 143.362 135.964 143.362 134.474 142.799 133.12 141.879 132.087L141.407 131.615C140.376 130.695 139.02 130.131 137.53 130.131 135.998 130.131 134.607 130.729 133.566 131.696 133.566 131.696 112.055 153.173 111.945 153.315 111.184 154.301 110.727 155.53 110.727 156.873 110.727 158.212 111.184 159.443 111.944 160.427 112.251 160.826 133.834 182.316 133.834 182.316 134.835 183.128 136.11 183.615 137.5 183.615 140.72 183.615 143.332 181.005 143.332 177.785 143.332 176.372 142.829 175.077 141.995 174.068L130.601 162.675 183.914 162.675C187.118 162.675 189.715 160.076 189.715 156.873 189.715 153.668 187.118 151.071 183.914 151.071" transform="matrix(6.12323e-17 -1 1.00376 6.14628e-17 242.522 536.716)"/></g></g></g></g></svg>